<svg width="30" height="30" viewBox="0 0 30 30" fill="none" xmlns="http://www.w3.org/2000/svg">
<g clip-path="url(#clip0_151_281)">
<path d="M11.7965 18.2293C13.5366 19.9934 15.6413 21.3558 17.9632 22.221L21.1048 19.721C21.198 19.6568 21.3084 19.6225 21.4215 19.6225C21.5346 19.6225 21.645 19.6568 21.7382 19.721L27.5715 23.4793C27.7929 23.6125 27.9804 23.7953 28.1191 24.0133C28.2577 24.2314 28.3438 24.4787 28.3705 24.7357C28.3972 24.9927 28.3637 25.2524 28.2728 25.4943C28.1818 25.7361 28.0359 25.9535 27.8465 26.1293L25.1132 28.8293C24.7217 29.2161 24.2406 29.4999 23.7128 29.6555C23.1849 29.8111 22.6268 29.8336 22.0882 29.721C16.7151 28.6108 11.7627 26.0119 7.79649 22.221C3.91894 18.3917 1.2355 13.5199 0.071488 8.19599C-0.0434568 7.66569 -0.0194662 7.11469 0.141135 6.59639C0.301736 6.07808 0.593501 5.61005 0.988155 5.23766L3.82149 2.50432C3.99682 2.32415 4.21064 2.18597 4.44694 2.10014C4.68325 2.01431 4.9359 1.98305 5.186 2.0087C5.43609 2.03435 5.67714 2.11625 5.8911 2.24826C6.10506 2.38027 6.28638 2.55897 6.42149 2.77099L10.3048 8.52932C10.3718 8.61975 10.408 8.7293 10.408 8.84182C10.408 8.95435 10.3718 9.0639 10.3048 9.15432L7.74649 12.2293C8.63447 14.5051 10.0179 16.5547 11.7965 18.2293Z" fill="black"/>
</g>
<defs>
<clipPath id="clip0_151_281">
<rect width="30" height="30" fill="white"/>
</clipPath>
</defs>
</svg>
