<svg width="30" height="30" viewBox="0 0 30 30" fill="none" xmlns="http://www.w3.org/2000/svg">
<g clip-path="url(#clip0_151_284)">
<path d="M27.5998 10.6749C26.7538 11.0655 25.8311 11.2615 24.8995 11.2484C23.9678 11.2354 23.051 11.0136 22.2163 10.5995C21.3817 10.1854 20.6505 9.58942 20.0765 8.85544C19.5026 8.12146 19.1005 7.26815 18.8998 6.35828C17.6769 5.79416 16.3465 5.50134 14.9998 5.49995C12.6705 5.48947 10.4186 6.33588 8.67295 7.87805C6.92726 9.42022 5.80959 11.5505 5.53271 13.8633C5.25583 16.1761 5.83908 18.51 7.17142 20.4206C8.50376 22.3313 10.4922 23.6853 12.7581 24.2249L12.4998 25.5249C9.93115 24.8989 7.68014 23.3551 6.17079 21.1845C4.66144 19.0138 3.99794 16.3662 4.30531 13.7403C4.61267 11.1144 5.86966 8.69155 7.83949 6.92816C9.80932 5.16477 12.356 4.18258 14.9998 4.16662C16.2835 4.16639 17.5567 4.39788 18.7581 4.84995C18.7791 4.00332 18.9718 3.16979 19.3248 2.39995C16.4633 1.41054 13.351 1.4206 10.496 2.42848C7.64104 3.43637 5.21217 5.38251 3.6061 7.94907C2.00003 10.5156 1.31166 13.5509 1.65343 16.5592C1.9952 19.5675 3.3469 22.3711 5.48778 24.5119C7.62865 26.6528 10.4322 28.0045 13.4405 28.3463C16.4488 28.6881 19.4841 27.9997 22.0506 26.3936C24.6172 24.7875 26.5634 22.3587 27.5712 19.5037C28.5791 16.6487 28.5892 13.5364 27.5998 10.6749ZM20.1664 19.3166C20.1059 19.4082 20.0278 19.487 19.9368 19.5483C19.8457 19.6096 19.7434 19.6524 19.6358 19.6741C19.5281 19.6958 19.4173 19.696 19.3096 19.6747C19.2018 19.6533 19.0994 19.611 19.0081 19.5499L14.0914 16.2166V8.95828C14.0914 8.73727 14.1792 8.52531 14.3355 8.36903C14.4918 8.21275 14.7038 8.12495 14.9248 8.12495C15.1458 8.12495 15.3577 8.21275 15.514 8.36903C15.6703 8.52531 15.7581 8.73727 15.7581 8.95828V15.3333L19.9248 18.1583C20.017 18.2182 20.0965 18.2957 20.1587 18.3865C20.2208 18.4773 20.2644 18.5794 20.2869 18.6871C20.3093 18.7948 20.3103 18.9059 20.2896 19.0139C20.2689 19.1219 20.2271 19.2248 20.1664 19.3166Z" fill="black"/>
<path d="M25.0002 9.16671C27.3013 9.16671 29.1668 7.30123 29.1668 5.00004C29.1668 2.69885 27.3013 0.833374 25.0002 0.833374C22.699 0.833374 20.8335 2.69885 20.8335 5.00004C20.8335 7.30123 22.699 9.16671 25.0002 9.16671Z" fill="black"/>
</g>
<defs>
<clipPath id="clip0_151_284">
<rect width="30" height="30" fill="white"/>
</clipPath>
</defs>
</svg>
