<svg width="30" height="30" viewBox="0 0 30 30" fill="none" xmlns="http://www.w3.org/2000/svg">
<g clip-path="url(#clip0_151_254)">
<path d="M25.7164 17.45C26.2649 17.5165 26.7932 17.6983 27.2664 17.9834H27.3081C27.8011 15.6571 27.6249 13.2386 26.7998 11.0084C26.7689 10.8974 26.7154 10.794 26.6425 10.7047C26.5697 10.6155 26.4791 10.5423 26.3766 10.4898C26.274 10.4373 26.1617 10.4067 26.0467 10.3998C25.9317 10.3929 25.8165 10.41 25.7084 10.4498C25.6004 10.4897 25.5017 10.5516 25.4188 10.6315C25.3358 10.7114 25.2703 10.8077 25.2264 10.9142C25.1825 11.0207 25.1612 11.1352 25.1638 11.2504C25.1664 11.3656 25.1928 11.4789 25.2414 11.5834C25.9297 13.4595 26.094 15.4877 25.7164 17.45ZM21.9414 23.8167C20.4893 25.0281 18.7454 25.8383 16.8831 26.1667C16.7737 26.176 16.6671 26.2068 16.5696 26.2573C16.4721 26.3077 16.3854 26.3769 16.3146 26.4609C16.2438 26.5448 16.1902 26.6419 16.1569 26.7466C16.1237 26.8513 16.1113 26.9614 16.1206 27.0709C16.1299 27.1803 16.1607 27.2868 16.2112 27.3844C16.2616 27.4819 16.3308 27.5686 16.4148 27.6394C16.4987 27.7102 16.5958 27.7638 16.7005 27.7971C16.8052 27.8303 16.9153 27.8427 17.0248 27.8334H17.1748C19.3945 27.4418 21.4689 26.4636 23.1831 25V24.9417C22.6929 24.6607 22.2693 24.2769 21.9414 23.8167ZM13.0164 26.1167C11.7561 25.8797 10.5465 25.4257 9.44145 24.775C8.96887 24.4968 8.51511 24.1878 8.08312 23.85C7.76518 24.3166 7.35015 24.7089 6.86645 25C7.40779 25.4563 7.98462 25.8687 8.59145 26.2334C9.86424 26.9831 11.2569 27.5075 12.7081 27.7834H12.8664C13.0875 27.8033 13.3073 27.7346 13.4777 27.5923C13.648 27.4501 13.7549 27.2461 13.7748 27.025C13.7947 26.804 13.726 26.5842 13.5837 26.4138C13.4415 26.2435 13.2375 26.1366 13.0164 26.1167ZM3.79978 17.625C3.96645 17.625 4.13312 17.6 4.29978 17.55C3.90253 15.5851 4.05831 13.5484 4.74978 11.6667C4.82603 11.459 4.81663 11.2294 4.72364 11.0286C4.63066 10.8278 4.4617 10.6721 4.25395 10.5959C4.0462 10.5196 3.81666 10.529 3.61584 10.622C3.41502 10.715 3.25937 10.884 3.18312 11.0917C2.35769 13.3403 2.19571 15.7787 2.71645 18.1167C3.05103 17.8997 3.41618 17.734 3.79978 17.625Z" fill="black"/>
<path d="M26.5833 19.1667C26.2857 18.9773 25.9535 18.8488 25.6059 18.7887C25.2583 18.7287 24.9023 18.7382 24.5583 18.8167C24.1228 18.9317 23.7221 19.1521 23.3917 19.4583L20.1667 17.5917C20.6746 16.3368 20.7214 14.9426 20.2988 13.6565C19.8762 12.3704 19.0116 11.2757 17.8583 10.5666L17.7667 10.5083C17.1439 10.1562 16.4593 9.92704 15.75 9.83332V6.66665C16.4137 6.46719 16.9748 6.01945 17.3167 5.41665C17.6848 4.79345 17.7924 4.05024 17.6161 3.34822C17.4398 2.64621 16.9939 2.042 16.375 1.66665C16.0735 1.49026 15.7399 1.37582 15.3936 1.33003C15.0473 1.28424 14.6953 1.30802 14.3583 1.39998C14.0109 1.48855 13.6846 1.64544 13.3984 1.86149C13.1123 2.07754 12.872 2.34841 12.6917 2.65832C12.3339 3.27851 12.2322 4.01377 12.408 4.70781C12.5839 5.40186 13.0234 5.99996 13.6333 6.37498C13.8246 6.49992 14.0321 6.59806 14.25 6.66665V9.83332C13.4106 9.9479 12.6087 10.254 11.9064 10.728C11.2042 11.2019 10.6203 11.831 10.2 12.5666C9.76512 13.3185 9.50754 14.1597 9.44688 15.0262C9.38623 15.8926 9.52411 16.7615 9.85002 17.5667L6.51668 19.475C6.39934 19.3632 6.27401 19.2602 6.14168 19.1667C5.83653 18.993 5.5001 18.8814 5.1517 18.8381C4.8033 18.7949 4.44978 18.8208 4.11143 18.9145C3.77308 19.0082 3.45656 19.1678 3.18004 19.3841C2.90351 19.6004 2.67241 19.8691 2.50002 20.175C2.14003 20.7922 2.03441 21.5253 2.2055 22.219C2.3766 22.9127 2.81099 23.5126 3.41668 23.8917C3.83167 24.142 4.30703 24.2745 4.79168 24.275C5.01107 24.2758 5.22961 24.2478 5.44168 24.1917C6.1345 24.0129 6.72846 23.5673 7.09382 22.9521C7.45918 22.337 7.56627 21.6022 7.39168 20.9083V20.7666L10.625 18.9C11.0584 19.4674 11.5922 19.9504 12.2 20.325C13.365 21.0596 14.7664 21.322 16.1183 21.0587C17.4702 20.7955 18.6708 20.0264 19.475 18.9083L22.6667 20.75C22.5162 21.3183 22.5525 21.92 22.7701 22.4661C22.9876 23.0123 23.375 23.4741 23.875 23.7833C24.4807 24.1387 25.2027 24.2391 25.8824 24.0626C26.5621 23.886 27.1439 23.4469 27.5 22.8417C27.8473 22.2283 27.9458 21.5051 27.7752 20.8212C27.6046 20.1373 27.178 19.545 26.5833 19.1667ZM6.70835 8.33332C7.90221 6.92302 9.43696 5.84152 11.1667 5.19165C10.9992 4.6329 10.951 4.04523 11.025 3.46665C8.85811 4.19113 6.92842 5.49006 5.44168 7.22498C5.29471 7.39295 5.22048 7.61243 5.23533 7.83513C5.25017 8.05783 5.35288 8.26551 5.52085 8.41248C5.68882 8.55946 5.9083 8.63369 6.131 8.61884C6.35369 8.60399 6.56138 8.50129 6.70835 8.33332Z" fill="black"/>
<path d="M20.5585 6.02498C21.5844 6.64037 22.5022 7.42021 23.2752 8.33331C23.3463 8.41648 23.4331 8.48482 23.5307 8.53444C23.6282 8.58406 23.7346 8.61398 23.8437 8.62249C23.9528 8.631 24.0625 8.61794 24.1666 8.58405C24.2706 8.55016 24.367 8.49611 24.4502 8.42497C24.5333 8.35384 24.6017 8.26702 24.6513 8.16948C24.7009 8.07193 24.7308 7.96557 24.7393 7.85646C24.7479 7.74735 24.7348 7.63763 24.7009 7.53357C24.667 7.42951 24.613 7.33315 24.5418 7.24998C23.6519 6.19411 22.5931 5.29302 21.4085 4.58331C20.6313 4.13225 19.8104 3.76091 18.9585 3.47498C19.0419 4.04949 18.9992 4.63527 18.8335 5.19164C19.4304 5.42166 20.0073 5.70038 20.5585 6.02498Z" fill="black"/>
</g>
<defs>
<clipPath id="clip0_151_254">
<rect width="30" height="30" fill="white"/>
</clipPath>
</defs>
</svg>
