<svg width="30" height="30" viewBox="0 0 30 30" fill="none" xmlns="http://www.w3.org/2000/svg">
<g clip-path="url(#clip0_151_288)">
<path d="M26.0831 13.6C25.0915 11.8583 19.4665 1.80832 19.4665 1.80832C19.3944 1.67806 19.2888 1.56949 19.1605 1.49389C19.0323 1.41829 18.8862 1.37842 18.7373 1.37842C18.5884 1.37842 18.4423 1.41829 18.3141 1.49389C18.1858 1.56949 18.0802 1.67806 18.0081 1.80832L13.0081 10.675L10.5081 6.27498C10.4361 6.14473 10.3304 6.03616 10.2022 5.96056C10.074 5.88496 9.92783 5.84508 9.77897 5.84508C9.63011 5.84508 9.48397 5.88496 9.35574 5.96056C9.22751 6.03616 9.12187 6.14473 9.04981 6.27498C9.04981 6.27498 4.49981 14.525 3.68314 15.9583C2.88373 17.2328 2.47257 18.7124 2.49981 20.2166C2.49981 24.475 5.73314 28.2583 9.72481 28.3333H18.7331C23.5665 28.3333 27.4998 23.85 27.4998 18.7C27.533 16.8985 27.0407 15.1263 26.0831 13.6ZM17.8998 26.6666H12.1165C11.1153 26.6369 10.164 26.223 9.45967 25.5109C8.75533 24.7988 8.35196 23.8431 8.33314 22.8416C8.32591 22.1413 8.54513 21.4573 8.95814 20.8916L11.7498 16.55C11.7876 16.4915 11.8394 16.4434 11.9005 16.4101C11.9617 16.3768 12.0302 16.3594 12.0998 16.3594C12.1694 16.3594 12.2379 16.3768 12.2991 16.4101C12.3602 16.4434 12.412 16.4915 12.4498 16.55L13.9331 18.8583V18.7916C14.4581 17.8666 17.4581 12.5583 17.4581 12.5583C17.4945 12.4942 17.5472 12.4409 17.6109 12.4037C17.6745 12.3666 17.7469 12.3471 17.8206 12.3471C17.8943 12.3471 17.9667 12.3666 18.0304 12.4037C18.0941 12.4409 18.1468 12.4942 18.1831 12.5583C18.1831 12.5583 21.1831 17.875 21.7081 18.7916C22.2279 19.5867 22.5031 20.5168 22.4998 21.4666C22.4998 26.6666 18.4165 26.6666 17.8998 26.6666Z" fill="black"/>
</g>
<defs>
<clipPath id="clip0_151_288">
<rect width="30" height="30" fill="white"/>
</clipPath>
</defs>
</svg>
