<svg width="30" height="30" viewBox="0 0 30 30" fill="none" xmlns="http://www.w3.org/2000/svg">
<g clip-path="url(#clip0_151_291)">
<path d="M16.2498 23.4166H13.8332C13.4165 23.4166 13.0832 23.1666 12.9998 22.75L12.5832 21.25L12.2498 21.0833L10.9165 21.8333C10.5832 22 10.1665 22 9.9165 21.6666L8.1665 19.9166C7.9165 19.6666 7.83317 19.25 7.99984 18.9166L8.74984 17.5833L8.58317 17.25L7.08317 16.8333C6.74984 16.75 6.4165 16.4166 6.4165 16V13.5833C6.4165 13.1666 6.6665 12.8333 7.08317 12.75L8.58317 12.3333L8.74984 12L7.99984 10.6666C7.83317 10.3333 7.83317 9.91663 8.1665 9.66663L9.9165 7.91663C10.1665 7.66663 10.5832 7.58329 10.9165 7.74996L12.2498 8.49996L12.5832 8.33329L12.9998 6.83329C13.0832 6.49996 13.4165 6.16663 13.8332 6.16663H16.2498C16.6665 6.16663 16.9998 6.41663 17.0832 6.83329L17.4998 8.33329L17.8332 8.49996L19.1665 7.74996C19.4998 7.58329 19.9165 7.58329 20.1665 7.91663L21.9165 9.66663C22.1665 9.91663 22.2498 10.3333 22.0832 10.6666L21.3332 12L21.4998 12.3333L22.9998 12.75C23.3332 12.8333 23.6665 13.1666 23.6665 13.5833V16C23.6665 16.4166 23.4165 16.75 22.9998 16.8333L21.4998 17.25L21.3332 17.5833L22.0832 18.9166C22.2498 19.25 22.2498 19.6666 21.9165 19.9166L20.1665 21.6666C19.9165 21.9166 19.4998 22 19.1665 21.8333L17.8332 21.0833L17.4998 21.25L17.0832 22.75C16.9165 23.1666 16.5832 23.4166 16.2498 23.4166ZM14.4165 21.75H15.5832L15.9998 20L16.4165 19.8333C16.7498 19.75 16.9998 19.5833 17.3332 19.5L17.7498 19.25L19.3332 20.1666L20.1665 19.3333L19.2498 17.75L19.4998 17.3333C19.6665 17.0833 19.7498 16.75 19.8332 16.4166L19.9998 16L21.7498 15.5833V14.4166L19.9998 14L19.8332 13.5833C19.7498 13.25 19.5832 13 19.4998 12.6666L19.2498 12.25L20.1665 10.6666L19.3332 9.83329L17.7498 10.75L17.3332 10.5C17.0832 10.3333 16.7498 10.25 16.4165 10.1666L15.9998 9.99996L15.5832 8.24996H14.4165L13.9998 9.99996L13.5832 10.1666C13.2498 10.25 12.9998 10.4166 12.6665 10.5L12.2498 10.75L10.6665 9.83329L9.83317 10.6666L10.7498 12.25L10.4998 12.6666C10.3332 12.9166 10.2498 13.25 10.1665 13.5833L9.99984 14L8.24984 14.4166V15.5833L9.99984 16L10.1665 16.4166C10.2498 16.75 10.4165 17 10.4998 17.3333L10.7498 17.75L9.83317 19.3333L10.6665 20.1666L12.2498 19.25L12.6665 19.5C12.9165 19.6666 13.2498 19.75 13.5832 19.8333L13.9998 20L14.4165 21.75Z" fill="black"/>
<path d="M14.9998 18.5833C12.9998 18.5833 11.4165 17 11.4165 15C11.4165 13 12.9998 11.4166 14.9998 11.4166C16.9998 11.4166 18.5832 13 18.5832 15C18.5832 17 16.9998 18.5833 14.9998 18.5833ZM14.9998 13.0833C13.9165 13.0833 13.0832 13.9166 13.0832 15C13.0832 16.0833 13.9165 16.9166 14.9998 16.9166C16.0832 16.9166 16.9165 16.0833 16.9165 15C16.9165 13.9166 16.0832 13.0833 14.9998 13.0833Z" fill="black"/>
<path d="M14.9998 1.66663C14.4998 1.66663 14.1665 1.99996 14.1665 2.49996C14.1665 2.99996 14.4998 3.33329 14.9998 3.33329C21.4165 3.33329 26.6665 8.58329 26.6665 15C26.6665 21.4166 21.4165 26.6666 14.9998 26.6666C8.58317 26.6666 3.33317 21.4166 3.33317 15C3.33317 12.6666 3.99984 10.4166 5.33317 8.49996V9.49996C5.33317 9.99996 5.6665 10.3333 6.1665 10.3333C6.6665 10.3333 6.99984 9.99996 6.99984 9.49996V5.33329H2.83317C2.33317 5.33329 1.99984 5.66663 1.99984 6.16663C1.99984 6.66663 2.33317 6.99996 2.83317 6.99996H4.33317C2.58317 9.24996 1.6665 12.0833 1.6665 15C1.6665 22.3333 7.6665 28.3333 14.9998 28.3333C22.3332 28.3333 28.3332 22.3333 28.3332 15C28.3332 7.66663 22.3332 1.66663 14.9998 1.66663Z" fill="black"/>
</g>
<defs>
<clipPath id="clip0_151_291">
<rect width="30" height="30" fill="white"/>
</clipPath>
</defs>
</svg>
