<svg width="30" height="30" viewBox="0 0 30 30" fill="none" xmlns="http://www.w3.org/2000/svg">
<g clip-path="url(#clip0_151_259)">
<path d="M14.9998 1.66663C12.3628 1.66663 9.7849 2.44861 7.59224 3.9137C5.39958 5.37878 3.69062 7.46117 2.68145 9.89751C1.67228 12.3339 1.40824 15.0148 1.92271 17.6012C2.43718 20.1876 3.70705 22.5634 5.57175 24.4281C7.43645 26.2928 9.81223 27.5626 12.3986 28.0771C14.9851 28.5916 17.6659 28.3275 20.1023 27.3184C22.5386 26.3092 24.621 24.6002 26.0861 22.4076C27.5512 20.2149 28.3332 17.637 28.3332 15C28.3332 11.4637 26.9284 8.07235 24.4279 5.57187C21.9275 3.07138 18.5361 1.66663 14.9998 1.66663ZM21.3748 19.6583C20.5415 22.1583 18.3665 22.8583 16.4582 22.9916V24.6583C16.4582 24.9346 16.3484 25.1995 16.1531 25.3949C15.9577 25.5902 15.6928 25.7 15.4165 25.7C15.1402 25.7 14.8753 25.5902 14.6799 25.3949C14.4846 25.1995 14.3748 24.9346 14.3748 24.6583V22.9916C12.4612 22.8122 10.6461 22.06 9.16651 20.8333C9.06638 20.7397 8.98565 20.6274 8.92895 20.5026C8.87225 20.3778 8.84067 20.2431 8.83603 20.1061C8.83139 19.9692 8.85377 19.8326 8.90189 19.7043C8.95002 19.576 9.02294 19.4584 9.11651 19.3583C9.21008 19.2582 9.32245 19.1774 9.44721 19.1207C9.57198 19.064 9.70669 19.0325 9.84366 19.0278C9.98062 19.0232 10.1172 19.0455 10.2455 19.0937C10.3738 19.1418 10.4914 19.2147 10.5915 19.3083C11.6819 20.1869 12.9943 20.7465 14.3832 20.925V15.6916C13.2762 15.5218 12.2173 15.1215 11.2748 14.5166C10.4823 14.0196 9.88908 13.2605 9.59828 12.3713C9.30748 11.4822 9.33752 10.5192 9.68318 9.64996C10.1748 8.39163 11.6998 6.95829 14.3832 6.72496V5.20829C14.3832 4.93203 14.4929 4.66707 14.6883 4.47172C14.8836 4.27637 15.1486 4.16663 15.4248 4.16663C15.7011 4.16663 15.9661 4.27637 16.1614 4.47172C16.3568 4.66707 16.4665 4.93203 16.4665 5.20829V6.75829C17.9561 6.92332 19.3702 7.50049 20.5498 8.42496C20.7133 8.61733 20.8014 8.86252 20.7977 9.11496C20.794 9.36739 20.6987 9.60988 20.5296 9.79733C20.3604 9.98478 20.129 10.1044 19.8783 10.134C19.6276 10.1636 19.3746 10.1012 19.1665 9.95829C18.3708 9.37636 17.443 9.00124 16.4665 8.86663V13.975C16.9665 14.0833 17.4998 14.2 18.0582 14.375C18.704 14.536 19.31 14.8276 19.8389 15.2317C20.3677 15.6359 20.8082 16.1441 21.1332 16.725C21.5973 17.6326 21.6841 18.6869 21.3748 19.6583Z" fill="black"/>
<path d="M17.4335 16.3667C17.1002 16.2667 16.7752 16.1834 16.4585 16.1167V20.9167C18.1252 20.75 19.0168 20.1667 19.4002 19C19.5279 18.5613 19.4832 18.0903 19.2752 17.6834C19.0714 17.3522 18.8036 17.0652 18.4873 16.8391C18.171 16.6129 17.8127 16.4523 17.4335 16.3667Z" fill="black"/>
<path d="M11.6168 10.4C11.4429 10.832 11.4315 11.3124 11.5847 11.7521C11.738 12.1919 12.0454 12.5612 12.4501 12.7916C13.039 13.1697 13.6955 13.43 14.3834 13.5583V8.79163C12.6334 8.99996 11.8251 9.86663 11.6168 10.4Z" fill="black"/>
</g>
<defs>
<clipPath id="clip0_151_259">
<rect width="30" height="30" fill="white"/>
</clipPath>
</defs>
</svg>
