<svg width="30" height="30" viewBox="0 0 30 30" fill="none" xmlns="http://www.w3.org/2000/svg">
<g clip-path="url(#clip0_151_264)">
<path d="M8.375 15C8.38001 16.3854 8.5535 17.7649 8.89167 19.1084H14.2917V11.2084H8.81667C8.52894 12.4519 8.3808 13.7237 8.375 15Z" fill="black"/>
<path d="M15.7085 11.2084V19.1084H21.1085C21.4607 17.7667 21.6482 16.3871 21.6668 15C21.6638 13.724 21.5184 12.4522 21.2335 11.2084H15.7085Z" fill="black"/>
<path d="M14.9998 1.66663C12.3628 1.66663 9.7849 2.44861 7.59224 3.9137C5.39958 5.37878 3.69062 7.46117 2.68145 9.89751C1.67228 12.3339 1.40824 15.0148 1.92271 17.6012C2.43718 20.1876 3.70705 22.5634 5.57175 24.4281C7.43645 26.2928 9.81223 27.5626 12.3986 28.0771C14.9851 28.5916 17.6659 28.3275 20.1023 27.3184C22.5386 26.3092 24.621 24.6002 26.0861 22.4076C27.5512 20.2149 28.3332 17.637 28.3332 15C28.3332 11.4637 26.9284 8.07235 24.4279 5.57187C21.9275 3.07138 18.5361 1.66663 14.9998 1.66663ZM25.1832 20.5916H22.1665C21.5961 22.3773 20.7528 24.0639 19.6665 25.5916C18.8645 25.9401 18.0259 26.1972 17.1665 26.3583C18.7063 24.6855 19.8912 22.7182 20.6498 20.575H15.7165V26.5333H14.3082V20.5916H9.34984C10.1075 22.7378 11.2925 24.7081 12.8332 26.3833C11.9915 26.224 11.1698 25.9725 10.3832 25.6333C9.29303 24.0928 8.44958 22.3918 7.88318 20.5916H4.81651C4.55045 20.1059 4.31931 19.6019 4.12484 19.0833H7.45818C7.14583 17.7444 6.98372 16.3748 6.97484 15C6.97603 13.7256 7.11009 12.4548 7.37484 11.2083H3.96651C4.14207 10.6913 4.3537 10.1873 4.59984 9.69996H7.77484C8.37117 7.71606 9.29502 5.84583 10.5082 4.16663C11.2781 3.84857 12.0799 3.6139 12.8998 3.46663C11.2414 5.24535 9.99022 7.36387 9.23318 9.67496H14.3082V3.33329H15.7165V9.69996H20.7915C20.0358 7.39257 18.7876 5.27706 17.1332 3.49996C17.9518 3.63648 18.7536 3.85996 19.5248 4.16663C20.7309 5.8337 21.6518 7.6895 22.2498 9.65829H25.3915C25.6377 10.1456 25.8493 10.6496 26.0248 11.1666H22.6415C22.912 12.4265 23.0488 13.7114 23.0498 15C23.0456 16.3829 22.8862 17.7609 22.5748 19.1083H25.9082C25.7018 19.6192 25.4596 20.1149 25.1832 20.5916Z" fill="black"/>
</g>
<defs>
<clipPath id="clip0_151_264">
<rect width="30" height="30" fill="white"/>
</clipPath>
</defs>
</svg>
