<svg width="30" height="30" viewBox="0 0 30 30" fill="none" xmlns="http://www.w3.org/2000/svg">
<g clip-path="url(#clip0_151_269)">
<path d="M14.1665 7.90006V6.59172C14.1665 4.49172 11.0248 3.39172 7.9165 3.39172C4.80817 3.39172 1.6665 4.50006 1.6665 6.59172V15.2001C1.6665 17.0001 3.97484 18.0584 6.58317 18.3334L6.6665 18.2751V12.6917C6.6665 10.0667 9.74984 8.11672 14.1665 7.90006Z" fill="black"/>
<path d="M14.9998 9.04163C10.8915 9.04163 7.7915 10.6083 7.7915 12.6916V22.95C7.7915 25.0333 10.8915 26.6 14.9998 26.6C19.1082 26.6 22.2082 25.0333 22.2082 22.95V21.15C20.1252 22.6794 17.5814 23.4499 14.9998 23.3333C13.2963 23.3621 11.6019 23.0797 9.99984 22.5V21.0583C11.5783 21.7349 13.2828 22.0673 14.9998 22.0333C18.5082 22.0333 21.3748 21.0083 22.1915 19.3416V17.0583C20.6665 18.3333 18.0998 19.1666 14.9998 19.1666C13.2963 19.1954 11.6019 18.913 9.99984 18.3333V16.8583C11.5783 17.5349 13.2828 17.8673 14.9998 17.8333C18.5082 17.8333 21.3748 16.9083 22.1915 15.2416V12.6916C22.2082 10.6083 19.1082 9.04163 14.9998 9.04163Z" fill="black"/>
<path d="M18.7502 5.00004C18.7524 4.60836 18.7915 4.21775 18.8668 3.83337C17.1252 4.32504 15.8335 5.25004 15.8335 6.59171V7.90004C17.2592 7.9428 18.6677 8.22448 20.0002 8.73337C19.19 7.65722 18.7514 6.34704 18.7502 5.00004Z" fill="black"/>
<path d="M24.9998 11.2417C24.2451 11.24 23.4969 11.1017 22.7915 10.8334C23.1666 11.3809 23.3697 12.028 23.3748 12.6917V18.275L23.4165 18.325C26.0248 18.0584 28.3332 16.9917 28.3332 15.2V10.275C27.3364 10.9072 26.1802 11.2425 24.9998 11.2417Z" fill="black"/>
<path d="M25.0002 9.15828C27.3013 9.15828 29.1668 7.2928 29.1668 4.99162C29.1668 2.69043 27.3013 0.824951 25.0002 0.824951C22.699 0.824951 20.8335 2.69043 20.8335 4.99162C20.8335 7.2928 22.699 9.15828 25.0002 9.15828Z" fill="black"/>
</g>
<defs>
<clipPath id="clip0_151_269">
<rect width="30" height="30" fill="white"/>
</clipPath>
</defs>
</svg>
