<svg width="30" height="30" viewBox="0 0 30 30" fill="none" xmlns="http://www.w3.org/2000/svg">
<g clip-path="url(#clip0_151_276)">
<path d="M8.33333 8.33329C8.55435 8.33329 8.76631 8.24549 8.92259 8.08921C9.07887 7.93293 9.16667 7.72097 9.16667 7.49996V2.49996C9.16667 2.27895 9.07887 2.06698 8.92259 1.9107C8.76631 1.75442 8.55435 1.66663 8.33333 1.66663C8.11232 1.66663 7.90036 1.75442 7.74408 1.9107C7.5878 2.06698 7.5 2.27895 7.5 2.49996V7.49996C7.5 7.72097 7.5878 7.93293 7.74408 8.08921C7.90036 8.24549 8.11232 8.33329 8.33333 8.33329Z" fill="black"/>
<path d="M25.0001 11.25C23.3424 11.25 21.7527 10.5915 20.5806 9.41939C19.4085 8.24729 18.7501 6.65758 18.7501 4.99997H10.1667V7.49997C10.1667 7.9862 9.97356 8.45252 9.62975 8.79634C9.28593 9.14015 8.81962 9.33331 8.33338 9.33331C7.84715 9.33331 7.38084 9.14015 7.03702 8.79634C6.69321 8.45252 6.50005 7.9862 6.50005 7.49997V4.99997H3.16672C2.9684 4.99772 2.77165 5.03525 2.5881 5.11036C2.40454 5.18547 2.23791 5.29662 2.09806 5.43725C1.95821 5.57787 1.84798 5.74511 1.7739 5.92908C1.69981 6.11305 1.66336 6.31001 1.66672 6.50831V25.1583C1.66341 25.3531 1.6985 25.5467 1.77001 25.7279C1.84151 25.9091 1.94801 26.0745 2.08344 26.2146C2.21886 26.3546 2.38055 26.4666 2.55927 26.5442C2.738 26.6218 2.93025 26.6634 3.12505 26.6666H26.8751C27.0699 26.6634 27.2621 26.6218 27.4408 26.5442C27.6196 26.4666 27.7812 26.3546 27.9167 26.2146C28.0521 26.0745 28.1586 25.9091 28.2301 25.7279C28.3016 25.5467 28.3367 25.3531 28.3334 25.1583V10.2833C27.3368 10.9159 26.1805 11.2512 25.0001 11.25ZM8.33338 21.6666H6.66672V20H8.33338V21.6666ZM8.33338 17.5H6.66672V15.8333H8.33338V17.5ZM8.33338 13.3333H6.66672V11.6666H8.33338V13.3333ZM13.3334 21.6666H11.6667V20H13.3334V21.6666ZM13.3334 17.5H11.6667V15.8333H13.3334V17.5ZM13.3334 13.3333H11.6667V11.6666H13.3334V13.3333ZM18.3334 21.6666H16.6667V20H18.3334V21.6666ZM18.3334 17.5H16.6667V15.8333H18.3334V17.5ZM18.3334 13.3333H16.6667V11.6666H18.3334V13.3333ZM23.3334 21.6666H21.6667V20H23.3334V21.6666ZM23.3334 17.5H21.6667V15.8333H23.3334V17.5ZM23.3334 13.3333H21.6667V11.6666H23.3334V13.3333Z" fill="black"/>
<path d="M25.0002 9.16671C27.3013 9.16671 29.1668 7.30123 29.1668 5.00004C29.1668 2.69885 27.3013 0.833374 25.0002 0.833374C22.699 0.833374 20.8335 2.69885 20.8335 5.00004C20.8335 7.30123 22.699 9.16671 25.0002 9.16671Z" fill="black"/>
</g>
<defs>
<clipPath id="clip0_151_276">
<rect width="30" height="30" fill="white"/>
</clipPath>
</defs>
</svg>
